<svg width="70" height="17" viewBox="0 0 70 17" fill="none" xmlns="http://www.w3.org/2000/svg">
<g clip-path="url(#clip0_386_899)">
<path d="M0 4.6415V16.6967C0 16.7485 0.0442105 16.7928 0.0957895 16.7928H6.46211C6.51368 16.7928 6.55789 16.7485 6.55789 16.6967V4.6415C6.55789 4.58976 6.51368 4.54541 6.46211 4.54541H0.0957895C0.0442105 4.54541 0 4.58976 0 4.6415Z" fill="#141414"/>
<path d="M6.46211 0H0.0957895C0.0442105 0 0 0.0443478 0 0.096087V3.6587C0 3.71043 0.0442105 3.75478 0.0957895 3.75478H6.46211C6.51368 3.75478 6.55789 3.71043 6.55789 3.6587V0.096087C6.56526 0.0443478 6.52105 0 6.46211 0Z" fill="#FFDE17"/>
<path d="M7.55258 0H25.1705C25.2221 0 25.2663 0.0443478 25.2663 0.096087V3.46652C25.2663 3.51826 25.2221 3.56261 25.1705 3.56261H14.1178C14.0663 3.56261 14.0221 3.60696 14.0221 3.6587V6.50435C14.0221 6.55609 14.0663 6.60044 14.1178 6.60044H24.2568C24.3084 6.60044 24.3526 6.64478 24.3526 6.69652V10.0743C24.3526 10.1261 24.3084 10.1704 24.2568 10.1704H14.1178C14.0663 10.1704 14.0221 10.2148 14.0221 10.2665V13.1122C14.0221 13.1639 14.0663 13.2083 14.1178 13.2083H25.1336C25.1852 13.2083 25.2294 13.2526 25.2294 13.3043V16.6748C25.2294 16.7265 25.1852 16.7709 25.1336 16.7709H7.55258C7.501 16.7709 7.45679 16.7265 7.45679 16.6748V0.096087C7.45679 0.0443478 7.501 0 7.55258 0Z" fill="#141414"/>
<path d="M41.1895 4.54541C41.1379 4.54541 41.0937 4.58976 41.0937 4.6415V10.3919C41.0937 12.0106 39.3769 13.1637 36.9453 13.1637C34.5137 13.1637 32.8042 12.0106 32.8042 10.3919V4.6415C32.8042 4.58976 32.76 4.54541 32.7084 4.54541H26.3421C26.2905 4.54541 26.2463 4.58976 26.2463 4.6415V10.7763C26.2463 14.5976 30.5348 16.9998 36.9453 16.9998C43.3558 16.9998 47.659 14.5976 47.659 10.7763V4.6415C47.659 4.58976 47.6148 4.54541 47.5632 4.54541H41.1969H41.1895Z" fill="#141414"/>
<path d="M41.1969 0H47.5632C47.6148 0 47.659 0.0443478 47.659 0.096087V3.6587C47.659 3.71043 47.6148 3.75478 47.5632 3.75478H41.1969C41.1453 3.75478 41.1011 3.71043 41.1011 3.6587V0.096087C41.1011 0.0443478 41.1453 0 41.1969 0Z" fill="#FFDE17"/>
<path d="M26.3421 0H32.7084C32.76 0 32.8042 0.0443478 32.8042 0.096087V3.6587C32.8042 3.71043 32.76 3.75478 32.7084 3.75478H26.3421C26.2905 3.75478 26.2463 3.71043 26.2463 3.6587V0.096087C26.2463 0.0443478 26.2905 0 26.3421 0Z" fill="#FFDE17"/>
<path d="M69.9041 16.793H64.5473C64.5473 16.793 64.4957 16.7857 64.481 16.7635L55.2704 7.75348C55.2704 7.75348 55.2262 7.72391 55.2041 7.72391H55.182C55.1304 7.72391 55.0862 7.76826 55.0862 7.82V16.6822C55.0862 16.7339 55.042 16.7783 54.9904 16.7783H48.6241C48.5725 16.7783 48.5283 16.7339 48.5283 16.6822V0.096087C48.5283 0.0443478 48.5725 0 48.6241 0H54.0841C54.0841 0 54.1357 0.0073913 54.1504 0.0295652L63.2136 9.01C63.2136 9.01 63.2578 9.03956 63.2799 9.03956H63.3388C63.3904 9.03956 63.4346 8.99522 63.4346 8.94348V0.096087C63.4346 0.0443478 63.4788 0 63.5304 0H69.8967C69.9483 0 69.9925 0.0443478 69.9925 0.096087V16.697C69.9925 16.7487 69.9483 16.793 69.8967 16.793H69.9041Z" fill="#141414"/>
</g>
<defs>
<clipPath id="clip0_386_899">
<rect width="70" height="17" fill="white"/>
</clipPath>
</defs>
</svg>
