<svg width="100" height="24" viewBox="0 0 100 24" fill="none" xmlns="http://www.w3.org/2000/svg">
<g clip-path="url(#clip0_386_832)">
<path d="M0 6.55313V23.5723C0 23.6453 0.0631579 23.7079 0.136842 23.7079H9.23158C9.30526 23.7079 9.36842 23.6453 9.36842 23.5723V6.55313C9.36842 6.48009 9.30526 6.41748 9.23158 6.41748H0.136842C0.0631579 6.41748 0 6.48009 0 6.55313Z" fill="#141414"/>
<path d="M9.23158 0H0.136842C0.0631579 0 0 0.0626087 0 0.135652V5.16522C0 5.23826 0.0631579 5.30087 0.136842 5.30087H9.23158C9.30526 5.30087 9.36842 5.23826 9.36842 5.16522V0.135652C9.37895 0.0626087 9.31579 0 9.23158 0Z" fill="#FFDE17"/>
<path d="M10.7894 0H35.9579C36.0315 0 36.0947 0.0626087 36.0947 0.135652V4.89391C36.0947 4.96696 36.0315 5.02957 35.9579 5.02957H20.1684C20.0947 5.02957 20.0315 5.09217 20.0315 5.16522V9.18261C20.0315 9.25565 20.0947 9.31826 20.1684 9.31826H34.6526C34.7263 9.31826 34.7894 9.38087 34.7894 9.45391V14.2226C34.7894 14.2957 34.7263 14.3583 34.6526 14.3583H20.1684C20.0947 14.3583 20.0315 14.4209 20.0315 14.4939V18.5113C20.0315 18.5843 20.0947 18.647 20.1684 18.647H35.9052C35.9789 18.647 36.0421 18.7096 36.0421 18.7826V23.5409C36.0421 23.6139 35.9789 23.6765 35.9052 23.6765H10.7894C10.7157 23.6765 10.6526 23.6139 10.6526 23.5409V0.135652C10.6526 0.0626087 10.7157 0 10.7894 0Z" fill="#141414"/>
<path d="M58.842 6.41748C58.7683 6.41748 58.7052 6.48009 58.7052 6.55313V14.6714C58.7052 16.9566 56.2525 18.5844 52.7788 18.5844C49.3052 18.5844 46.8631 16.9566 46.8631 14.6714V6.55313C46.8631 6.48009 46.7999 6.41748 46.7262 6.41748H37.6315C37.5578 6.41748 37.4946 6.48009 37.4946 6.55313V15.214C37.4946 20.6088 43.6209 24.0001 52.7788 24.0001C61.9367 24.0001 68.0841 20.6088 68.0841 15.214V6.55313C68.0841 6.48009 68.021 6.41748 67.9473 6.41748H58.8525H58.842Z" fill="#141414"/>
<path d="M58.8524 0H67.9472C68.0208 0 68.084 0.0626087 68.084 0.135652V5.16522C68.084 5.23826 68.0208 5.30087 67.9472 5.30087H58.8524C58.7787 5.30087 58.7156 5.23826 58.7156 5.16522V0.135652C58.7156 0.0626087 58.7787 0 58.8524 0Z" fill="#FFDE17"/>
<path d="M37.6315 0H46.7262C46.7999 0 46.8631 0.0626087 46.8631 0.135652V5.16522C46.8631 5.23826 46.7999 5.30087 46.7262 5.30087H37.6315C37.5578 5.30087 37.4946 5.23826 37.4946 5.16522V0.135652C37.4946 0.0626087 37.5578 0 37.6315 0Z" fill="#FFDE17"/>
<path d="M99.8633 23.7078H92.2106C92.2106 23.7078 92.1369 23.6974 92.1159 23.6661L78.958 10.9461C78.958 10.9461 78.8948 10.9043 78.8633 10.9043H78.8317C78.758 10.9043 78.6948 10.967 78.6948 11.04V23.5513C78.6948 23.6243 78.6317 23.687 78.558 23.687H69.4633C69.3896 23.687 69.3264 23.6243 69.3264 23.5513V0.135652C69.3264 0.0626087 69.3896 0 69.4633 0H77.2633C77.2633 0 77.3369 0.0104348 77.358 0.0417391L90.3054 12.72C90.3054 12.72 90.3685 12.7617 90.4001 12.7617H90.4843C90.558 12.7617 90.6211 12.6991 90.6211 12.6261V0.135652C90.6211 0.0626087 90.6843 0 90.758 0H99.8527C99.9264 0 99.9896 0.0626087 99.9896 0.135652V23.5722C99.9896 23.6452 99.9264 23.7078 99.8527 23.7078H99.8633Z" fill="#141414"/>
</g>
<defs>
<clipPath id="clip0_386_832">
<rect width="100" height="24" fill="white"/>
</clipPath>
</defs>
</svg>
